HIERARCHY
ROOT Hips
{
 OFFSET 0.000000 0.000000 0.000000
 CHANNELS 6 Xposition Yposition Zposition Yrotation Xrotation Zrotation
 JOINT Chest
 {
  OFFSET 0.000000 9.585900 0.002600
  CHANNELS 3 Yrotation Xrotation Zrotation
  JOINT Chest2
  {
   OFFSET 0.000000 9.601200 -0.005300
   CHANNELS 3 Yrotation Xrotation Zrotation
   JOINT Chest3
   {
    OFFSET 0.000000 9.561800 0.000000
    CHANNELS 3 Yrotation Xrotation Zrotation
    JOINT Chest4
    {
     OFFSET 0.000000 9.552100 0.000000
     CHANNELS 3 Yrotation Xrotation Zrotation
     JOINT Neck
     {
      OFFSET 0.000000 14.453000 0.000000
      CHANNELS 3 Yrotation Xrotation Zrotation
      JOINT Head
      {
       OFFSET 0.000000 8.936500 -0.011300
       CHANNELS 3 Yrotation Xrotation Zrotation
       End Site
       {
        OFFSET 0.000000 17.073600 -0.006000
       }
      }
     }
     JOINT RightCollar
     {
      OFFSET -2.921100 9.558500 0.000000
      CHANNELS 3 Yrotation Xrotation Zrotation
      JOINT RightShoulder
      {
       OFFSET -13.519700 0.000000 0.000000
       CHANNELS 3 Yrotation Xrotation Zrotation
       JOINT RightElbow
       {
        OFFSET 0.000000 -29.696600 0.000000
        CHANNELS 3 Yrotation Xrotation Zrotation
        JOINT RightWrist
        {
         OFFSET 0.000000 -24.004700 0.000000
         CHANNELS 3 Yrotation Xrotation Zrotation
         End Site
         {
          OFFSET 0.000000 -17.728500 0.000000
         }
        }
       }
      }
     }
     JOINT LeftCollar
     {
      OFFSET 2.921100 9.558500 0.000000
      CHANNELS 3 Yrotation Xrotation Zrotation
      JOINT LeftShoulder
      {
       OFFSET 13.519700 0.000000 0.000000
       CHANNELS 3 Yrotation Xrotation Zrotation
       JOINT LeftElbow
       {
        OFFSET 0.000000 -29.696600 0.000000
        CHANNELS 3 Yrotation Xrotation Zrotation
        JOINT LeftWrist
        {
         OFFSET 0.000000 -24.004700 0.000000
         CHANNELS 3 Yrotation Xrotation Zrotation
         End Site
         {
          OFFSET 0.000000 -17.728500 0.000000
         }
        }
       }
      }
     }
    }
   }
  }
 }
 JOINT RightHip
 {
  OFFSET -7.771700 -0.012900 -0.001300
  CHANNELS 3 Yrotation Xrotation Zrotation
  JOINT RightKnee
  {
   OFFSET 0.000000 -40.869800 0.001200
   CHANNELS 3 Yrotation Xrotation Zrotation
   JOINT RightAnkle
   {
    OFFSET 0.000000 -39.717900 0.002100
    CHANNELS 3 Yrotation Xrotation Zrotation
    JOINT RightToe
    {
     OFFSET 0.000000 -4.965400 11.033500
     CHANNELS 3 Yrotation Xrotation Zrotation
     End Site
     {
      OFFSET 0.000000 -1.423100 5.872300
     }
    }
   }
  }
 }
 JOINT LeftHip
 {
  OFFSET 7.771700 -0.012900 -0.001300
  CHANNELS 3 Yrotation Xrotation Zrotation
  JOINT LeftKnee
  {
   OFFSET 0.000000 -40.869800 0.001200
   CHANNELS 3 Yrotation Xrotation Zrotation
   JOINT LeftAnkle
   {
    OFFSET 0.000000 -39.717900 0.002100
    CHANNELS 3 Yrotation Xrotation Zrotation
    JOINT LeftToe
    {
     OFFSET 0.000000 -4.965400 11.033500
     CHANNELS 3 Yrotation Xrotation Zrotation
     End Site
     {
      OFFSET 0.000000 -1.423100 5.872300
     }
    }
   }
  }
 }
}
MOTION
Frames: 5
Frame Time: 0.008333
0.000000 85.388000 0.000000 0.000000 -5.767877 0.000000 0.000000 11.653817 0.000000 0.000000 -5.885947 0.000000 0.000000 -0.000000 0.000000 0.000000 -0.000000 0.000000 0.000000 12.528835 0.000000 0.000000 0.711642 0.000000 0.000000 -0.000000 0.000000 0.000000 0.000000 -90.000000 0.000000 -2.309062 0.000000 0.000000 2.309062 0.000000 0.000000 -0.000000 0.000000 0.000000 -0.000000 90.000000 0.000000 -2.309062 0.000000 0.000000 2.309062 0.000000 0.000000 8.520406 0.000000 0.000000 1.905762 0.000000 -0.000000 -4.658285 0.000000 0.000000 -0.000000 0.000000 0.000000 8.520406 0.000000 0.000000 1.905762 0.000000 -0.000000 -4.658285 0.000000 0.000000 -0.000000 0.000000
-38.049393 50.644426 4.614068 162.243266 -7.354440 3.251769 3.124251 7.846531 1.903899 0.148727 0.414714 0.041370 0.226086 0.686372 0.108075 2.715953 7.495695 1.042050 3.839031 17.200600 -0.232284 7.165129 -3.776707 -1.720806 4.664022 5.820565 0.183297 -2.006342 -19.635620 -8.576307 8.639618 -62.957565 7.660073 1.207436 4.179880 -26.128064 -6.120918 2.342437 0.123054 18.528449 -4.158540 -1.075430 -0.178184 -68.307480 -15.846810 0.476036 4.904806 5.779203 14.159988 -73.510503 -14.175574 -114.668778 80.616093 -115.171026 -3.709587 -14.161679 2.320651 -0.254742 0.848363 -0.123517 -1.721481 -75.484178 17.541935 101.051289 77.829609 97.443220 -16.372408 -18.386097 -0.887324 -0.318508 -0.966468 -0.196759
-38.048709 50.644005 4.614937 162.252388 -7.314928 3.247246 3.133531 7.824244 1.892865 0.170595 0.436530 0.018941 0.220185 0.675128 0.114428 2.742758 7.467298 1.022858 3.810100 17.203297 -0.184501 7.146561 -3.764966 -1.695632 4.594123 5.843696 0.176000 -2.319491 -19.307510 -8.420015 8.159849 -63.794327 8.145296 1.203064 4.080241 -26.324107 -6.082959 2.392393 0.157912 18.741075 -3.994360 -1.156043 1.561005 -68.681978 -17.714451 0.505298 4.883394 5.775426 14.146001 -73.546567 -14.177992 -114.654189 80.623897 -115.158923 -3.698393 -14.171202 2.320963 -0.270033 0.857825 -0.127699 -1.765222 -75.526877 17.570237 101.047348 77.821112 97.447332 -16.363695 -18.384229 -0.889358 -0.303465 -0.962002 -0.193079
-38.044358 50.643615 4.615813 162.266637 -7.280038 3.221271 3.151592 7.820703 1.890109 0.176925 0.431589 0.018246 0.250479 0.697606 0.082520 2.735470 7.413540 1.042411 3.785964 17.207386 -0.146082 7.117931 -3.730315 -1.654710 4.541381 5.852711 0.162823 -2.617904 -18.964159 -8.269262 7.715019 -64.627286 8.569608 1.184480 3.982614 -26.523252 -6.036635 2.434170 0.174793 18.929976 -3.851261 -1.231317 3.166822 -69.045926 -19.428895 0.523593 4.855037 5.816952 14.072577 -73.585036 -14.119479 -114.651813 80.621065 -115.145647 -3.695170 -14.168842 2.306782 -0.268387 0.852085 -0.123489 -1.891456 -75.565836 17.676587 101.044263 77.812245 97.451829 -16.314333 -18.390168 -0.901423 -0.330462 -0.951810 -0.197952
-38.041682 50.642964 4.619797 162.292376 -7.225156 3.197548 3.202747 7.821719 1.858655 0.144187 0.397965 0.046332 0.232635 0.682420 0.097682 2.770151 7.401555 1.015553 3.766039 17.221513 -0.118280 7.080134 -3.708541 -1.596176 4.492796 5.857553 0.156404 -2.903770 -18.627116 -8.128689 7.236773 -65.438239 9.011322 1.144036 3.884578 -26.719906 -5.992674 2.468415 0.187418 19.098622 -3.730734 -1.309078 4.634980 -69.393802 -20.984795 0.534559 4.824038 5.878136 13.984618 -73.639282 -14.077223 -114.628110 80.629170 -115.100939 -3.684906 -14.182093 2.276997 -0.259059 0.861159 -0.122442 -2.023939 -75.625318 17.767804 101.005246 77.791056 97.425797 -16.268086 -18.395479 -0.927341 -0.324287 -0.937988 -0.186966
